<svg version="1.1" id="Layer_1" xmlns="http://www.w3.org/2000/svg" xmlns:xlink="http://www.w3.org/1999/xlink" x="0px" y="0px"
	 width="100%" viewBox="0 0 1346 360" enable-background="new 0 0 1346 360" xml:space="preserve">
<path fill="#FEFEFE" opacity="1.000000" stroke="none" 
	d="
M867.000000,361.000000 
	C578.000061,361.000000 289.500061,361.000000 1.000077,361.000000 
	C1.000052,241.000046 1.000052,121.000099 1.000026,1.000110 
	C449.666534,1.000073 898.333069,1.000073 1346.999756,1.000037 
	C1346.999756,120.999886 1346.999756,240.999771 1346.999878,360.999817 
	C1187.166626,361.000000 1027.333374,361.000000 867.000000,361.000000 
M894.368896,92.129585 
	C893.197205,91.357246 892.108948,90.103851 890.841370,89.883774 
	C866.867920,85.721466 844.414246,95.967850 830.975647,116.986412 
	C830.151184,118.275963 828.773743,119.211906 827.653564,120.312363 
	C826.921997,118.974144 825.873962,117.716103 825.511169,116.284431 
	C823.486633,108.295464 821.627930,100.264488 819.758362,92.439461 
	C807.881897,92.439461 796.620605,92.439461 785.191711,92.439461 
	C785.191711,148.598099 785.191711,204.479034 785.191711,260.497559 
	C800.497314,260.497559 815.538696,260.497559 830.915710,260.497559 
	C830.915710,258.351013 830.914307,256.542694 830.915894,254.734406 
	C830.939880,227.083984 830.774170,199.431625 831.056580,171.783844 
	C831.239624,153.874176 841.539062,139.900131 858.235168,134.483139 
	C867.539673,131.464325 877.167603,131.205429 886.875977,132.589035 
	C888.342529,132.798065 890.011719,131.585403 892.259277,130.993256 
	C900.502014,128.519867 904.797607,122.520943 907.017761,114.168579 
	C910.138672,123.098122 914.541504,130.319489 925.083191,131.926758 
	C925.083191,199.501846 925.083191,267.076935 925.083191,334.663361 
	C940.765320,334.663361 955.821350,334.663361 970.031128,334.663361 
	C970.031128,303.672180 970.031128,273.022888 970.031128,241.714127 
	C971.403992,243.032883 972.781067,244.105545 973.855408,245.424744 
	C993.499207,269.545441 1044.205566,273.015198 1066.368530,238.751556 
	C1076.638184,222.874680 1081.288452,205.506622 1082.368530,186.965134 
	C1083.720581,163.754242 1081.732788,141.099594 1070.833740,119.938583 
	C1050.175293,79.829071 993.309692,80.245270 973.132629,111.363960 
	C972.329163,112.603180 971.906677,114.089394 971.306641,115.460526 
	C970.592957,115.005264 969.879272,114.550003 969.165588,114.094742 
	C967.328735,107.957695 965.392639,101.847809 963.701416,95.670898 
	C962.971680,93.005585 961.737488,92.034729 958.848267,92.082863 
	C947.689697,92.268761 936.526123,92.146202 924.558228,92.071136 
	C917.981934,92.879967 912.527222,96.580086 910.314575,102.168152 
	C908.010132,107.987854 904.546936,108.343361 899.741516,108.023827 
	C897.604614,107.881744 895.450989,107.991524 893.184753,107.323395 
	C893.284851,106.890068 893.384949,106.456734 894.177856,105.995293 
	C897.073853,104.102081 899.969849,102.208870 902.865784,100.315643 
	C900.089050,97.870125 897.312378,95.424599 894.368896,92.129585 
M558.124695,52.135490 
	C534.932861,41.442265 510.734253,35.852993 485.044617,37.197945 
	C442.882538,39.405285 408.459442,66.494537 396.814209,106.979614 
	C388.118713,137.209915 388.557892,167.611404 397.030365,197.648972 
	C406.686279,231.882263 428.631012,254.239243 464.199280,261.154999 
	C492.620850,266.681152 520.532471,263.510345 547.609619,253.372269 
	C548.919495,252.881836 550.310730,250.607056 550.368591,249.113037 
	C550.651917,241.792282 550.495911,234.454544 550.495483,227.122803 
	C550.495239,222.717651 550.495483,218.312500 550.495483,213.570419 
	C548.853455,213.937347 548.039001,214.042633 547.276428,214.301041 
	C531.627075,219.604172 515.721558,223.569061 499.138336,224.692841 
	C474.301331,226.375961 453.485535,216.940781 445.238068,192.152954 
	C435.975311,164.313660 435.847107,136.030457 446.367310,108.470634 
	C456.095612,82.985405 481.253448,70.788879 507.034027,78.723824 
	C507.023102,80.052391 507.163086,81.402794 506.974640,82.705688 
	C506.225006,87.889038 508.581726,89.428665 513.503296,89.080254 
	C518.626221,88.717590 523.798889,89.121170 528.941772,88.949753 
	C531.650513,88.859459 534.342285,88.257118 537.798523,87.979591 
	C539.741089,88.832550 541.683655,89.685509 543.659546,90.553085 
	C545.573853,86.161072 547.156616,82.529823 549.463623,79.001274 
	C551.129883,80.321655 552.922974,81.511337 554.440491,82.984871 
	C561.285950,89.632065 574.784485,90.640915 582.460632,84.990570 
	C590.302734,79.218094 593.020752,68.983627 589.062256,60.132469 
	C585.213684,51.527237 574.709961,46.113323 565.546936,48.430611 
	C563.130432,49.041729 561.057739,51.012093 558.124695,52.135490 
M687.022522,262.436005 
	C688.252991,263.287354 689.468872,264.851807 690.716187,264.877167 
	C700.689758,265.079926 710.669861,264.934052 720.646667,265.030212 
	C723.347168,265.056244 724.167297,263.842651 724.014160,261.397491 
	C723.920837,259.906708 723.871704,258.392242 724.024536,256.911285 
	C724.347168,253.785446 722.909790,252.928375 719.959290,252.918335 
	C717.270691,252.909195 714.584412,252.192856 712.226746,251.201614 
	C728.160217,240.787857 737.923096,225.974945 742.857971,207.832916 
	C747.240784,191.720459 748.132874,175.287399 745.892273,158.804382 
	C741.966431,129.923676 727.854675,107.928223 700.810364,95.604271 
	C684.574341,88.205582 667.281616,87.635712 649.878540,90.106483 
	C620.954651,94.212898 600.035095,109.099434 590.002930,137.007431 
	C581.117493,161.725235 580.581238,187.132797 589.069580,211.980164 
	C597.962036,238.010147 616.030701,254.964691 643.285645,261.433441 
	C657.841309,264.888062 672.353943,264.275635 687.022522,262.436005 
M1275.992676,244.492432 
	C1279.766602,240.747818 1283.848511,237.262512 1287.259766,233.212433 
	C1300.065674,218.008606 1303.787109,199.909576 1303.745117,180.575165 
	C1303.647461,135.595184 1303.715210,90.614830 1303.715820,45.634636 
	C1303.715820,43.887852 1303.715698,42.141068 1303.715698,40.546852 
	C1287.651123,40.546852 1272.419556,40.546852 1257.000244,40.546852 
	C1257.000244,42.758369 1257.000244,44.585464 1257.000244,46.412560 
	C1257.000244,88.727295 1257.037354,131.042114 1256.954102,173.356674 
	C1256.943359,178.836731 1256.590820,184.350143 1255.917236,189.788757 
	C1253.492432,209.371796 1243.791138,220.704727 1225.454224,223.499329 
	C1217.220215,224.754196 1208.420776,224.393219 1200.170776,223.013458 
	C1182.903931,220.125671 1173.921631,210.619247 1171.080933,193.388260 
	C1169.921997,186.358398 1169.383423,179.151382 1169.356934,172.022003 
	C1169.201294,130.207565 1169.280518,88.392265 1169.280396,46.577248 
	C1169.280396,44.618755 1169.280396,42.660263 1169.280396,40.496323 
	C1153.570190,40.496323 1138.358887,40.496323 1122.842163,40.496323 
	C1122.842163,42.646999 1122.842163,44.464470 1122.842163,46.281937 
	C1122.842529,89.762886 1122.791748,133.243958 1122.894165,176.724670 
	C1122.911011,183.866394 1123.035278,191.090637 1124.082153,198.132172 
	C1127.738403,222.721710 1140.100586,241.606888 1162.382446,253.217407 
	C1181.938477,263.407623 1203.107788,264.841034 1224.633545,263.335999 
	C1243.287842,262.031738 1260.527222,256.660248 1275.992676,244.492432 
M101.843002,91.378799 
	C81.234032,104.308212 60.625061,117.237633 38.809780,130.923843 
	C133.002243,130.923843 225.641891,130.923843 319.311310,130.923843 
	C317.925293,129.898926 317.351929,129.412155 316.721039,129.017349 
	C271.868317,100.949135 226.992813,72.917213 182.203262,44.748611 
	C179.743362,43.201553 178.215073,43.587151 176.059387,44.943027 
	C151.561462,60.351624 127.014671,75.682518 101.843002,91.378799 
M165.500000,316.094238 
	C124.910110,316.094238 84.320221,316.094238 43.656441,316.094238 
	C43.656441,320.684479 43.656441,324.731659 43.656441,328.755920 
	C134.241913,328.755920 224.464737,328.755920 314.714233,328.755920 
	C314.714233,324.442688 314.714233,320.401215 314.714233,316.094238 
	C265.070618,316.094238 215.785309,316.094238 165.500000,316.094238 
M273.499695,160.873352 
	C269.416077,160.873352 265.332458,160.873352 261.432495,160.873352 
	C261.432495,203.234497 261.432495,244.906952 261.432495,286.444397 
	C270.088593,286.444397 278.328247,286.444397 286.567261,286.444397 
	C286.567261,244.543732 286.567261,202.976578 286.567261,160.873322 
	C282.389343,160.873322 278.441498,160.873322 273.499695,160.873352 
M166.345886,264.499878 
	C166.345886,271.785309 166.345886,279.070740 166.345886,286.520050 
	C175.094635,286.520050 183.337265,286.520050 191.727844,286.520050 
	C191.727844,244.546616 191.727844,202.833160 191.727844,161.228104 
	C183.152771,161.228104 174.921127,161.228104 166.346039,161.228104 
	C166.346039,195.555511 166.346039,229.527695 166.345886,264.499878 
M144.848572,215.500015 
	C144.848572,197.409546 144.848572,179.319061 144.848572,161.125580 
	C135.997162,161.125580 127.752205,161.125580 119.365128,161.125580 
	C119.365128,203.055878 119.365128,244.733353 119.365128,286.535156 
	C127.917374,286.535156 136.160217,286.535156 144.848557,286.535156 
	C144.848557,263.030609 144.848557,239.765320 144.848572,215.500015 
M239.298386,268.499390 
	C239.298386,232.751862 239.298386,197.004333 239.298386,161.250458 
	C230.456726,161.250458 222.240692,161.250458 214.135712,161.250458 
	C214.135712,203.193756 214.135712,244.767548 214.135712,286.362061 
	C222.641556,286.362061 230.838303,286.362061 239.298492,286.362061 
	C239.298492,280.473633 239.298492,274.986176 239.298386,268.499390 
M92.353325,286.767090 
	C93.929886,286.767090 95.506447,286.767090 97.068695,286.767090 
	C97.068695,244.413559 97.068695,202.839905 97.068695,161.244598 
	C88.518829,161.244598 80.301155,161.244598 72.172340,161.244598 
	C72.172340,203.189529 72.172340,244.770782 72.172340,286.767029 
	C78.778870,286.767029 85.078987,286.767029 92.353325,286.767090 
M152.500000,307.944366 
	C201.239899,307.944366 249.979782,307.944366 298.792786,307.944366 
	C298.792786,303.379303 298.792786,299.339874 298.792786,295.385437 
	C218.785431,295.385437 139.124893,295.385437 59.446724,295.385437 
	C59.446724,299.667175 59.446724,303.590881 59.446724,307.944366 
	C90.301743,307.944366 120.900871,307.944366 152.500000,307.944366 
M299.112885,150.411087 
	C299.112885,146.960571 299.112885,143.510040 299.112885,140.054047 
	C218.886246,140.054047 139.209839,140.054047 59.597961,140.054047 
	C59.597961,144.319427 59.597961,148.196579 59.597961,152.113770 
	C60.647854,152.209686 61.305813,152.322372 61.963787,152.322449 
	C139.769241,152.332153 217.574677,152.337784 295.380096,152.296082 
	C296.589966,152.295441 297.799500,151.706238 299.112885,150.411087 
M555.044617,96.455429 
	C552.897888,99.538551 550.920288,102.762772 548.522644,105.636551 
	C547.540344,106.813950 545.683105,107.808296 544.167908,107.893860 
	C539.183960,108.175270 534.173157,108.071571 529.175232,107.977989 
	C526.212097,107.922493 525.348267,109.258003 524.890747,112.130875 
	C523.996460,117.746460 527.945068,118.034645 531.891479,118.601967 
	C527.692078,122.884705 522.745667,122.317841 519.123352,117.583107 
	C516.378845,113.995773 516.815063,107.610474 520.252991,104.351784 
	C523.202209,101.556374 527.453308,100.385483 530.174316,103.122948 
	C534.005371,106.977249 536.785034,105.200790 540.248657,103.411804 
	C543.285828,101.843117 543.541809,100.338188 541.266479,97.682411 
	C534.057068,89.267761 521.609680,89.802338 513.597839,95.149452 
	C503.451843,101.920845 502.108124,116.162918 510.014069,125.479073 
	C517.222290,133.972992 532.381042,134.436066 540.359680,125.938248 
	C543.344360,122.759361 545.145996,118.469688 547.408813,114.812843 
	C554.884949,130.944916 567.715576,136.555527 580.667480,129.149429 
	C590.774475,123.370125 594.036072,110.249832 587.768677,100.583733 
	C581.338257,90.666199 565.175598,88.335304 555.044617,96.455429 
M1105.399048,267.944519 
	C1097.226685,268.686279 1092.102539,273.525391 1089.052856,280.673889 
	C1087.925903,283.315369 1086.483521,284.130524 1083.807251,284.044128 
	C1078.981445,283.888336 1074.144897,284.089294 1069.316772,283.974823 
	C1065.865112,283.893005 1065.040894,285.991364 1065.036377,288.766479 
	C1065.032227,291.355103 1065.256226,293.886810 1068.836426,294.029053 
	C1069.801025,294.067383 1070.748169,294.544983 1072.114014,294.939667 
	C1066.979126,298.721771 1062.133667,297.935120 1058.879028,293.303772 
	C1056.197266,289.487579 1056.614624,283.976562 1060.106812,280.493958 
	C1062.985596,277.623230 1067.295166,276.327026 1070.000977,279.004486 
	C1073.994385,282.955963 1076.916626,281.151428 1080.495117,279.268402 
	C1083.328125,277.777649 1083.559082,276.207733 1081.395142,273.857666 
	C1076.222168,268.239441 1070.083130,266.900665 1062.553711,267.836914 
	C1050.337891,269.355865 1043.108032,281.422363 1045.316406,291.467651 
	C1047.963013,303.506134 1059.839966,310.715759 1071.328125,307.361542 
	C1079.915894,304.854126 1084.841431,299.017365 1086.783447,289.194855 
	C1087.653320,291.115417 1088.075684,291.773773 1088.258911,292.493011 
	C1091.581055,305.537842 1105.462524,310.230774 1116.338013,307.031830 
	C1126.635376,304.002960 1132.541260,293.370758 1130.113892,282.284393 
	C1128.018677,272.715576 1116.923096,265.929108 1105.399048,267.944519 
M726.027344,291.825928 
	C727.726562,291.007507 727.898560,290.958557 728.509521,293.105072 
	C730.739868,300.940857 736.104431,305.483704 743.744019,307.330963 
	C758.868408,310.988037 771.817200,300.115692 770.865845,285.980011 
	C770.140076,275.195801 762.358276,268.638489 749.887695,267.153107 
	C742.125427,266.228516 732.104919,272.506531 729.063965,280.547668 
	C728.059265,283.204346 726.664612,284.139099 723.923218,284.047577 
	C718.929382,283.880920 713.886292,283.657196 708.950806,284.220001 
	C707.487549,284.386841 705.360291,287.056030 705.271851,288.673370 
	C705.178650,290.378479 706.958252,292.379486 708.323486,293.884857 
	C708.956970,294.583374 710.547302,294.414032 712.235535,294.741089 
	C707.188416,298.741577 702.266785,298.008423 698.938354,293.380829 
	C696.037964,289.348541 696.554565,283.654144 700.399658,280.212677 
	C703.400024,277.527222 707.591614,276.339722 710.334717,279.239685 
	C713.998779,283.113312 716.690796,281.088165 719.978516,279.540039 
	C723.243591,278.002625 723.768921,276.338287 721.115417,273.543182 
	C715.810120,267.954834 709.539734,266.685089 702.129089,267.907928 
	C694.118103,269.229858 687.431152,275.043854 685.330566,283.484894 
	C683.557251,290.610809 687.164490,300.009949 693.242859,304.128326 
	C706.145020,312.870178 723.011536,306.228516 726.027344,291.825928 
z"/>
<path fill="#21468A" opacity="1.000000" stroke="none" 
	d="
M925.364380,92.138580 
	C936.526123,92.146202 947.689697,92.268761 958.848267,92.082863 
	C961.737488,92.034729 962.971680,93.005585 963.701416,95.670898 
	C965.392639,101.847809 967.328735,107.957695 969.165588,114.094742 
	C969.879272,114.550003 970.592957,115.005264 971.306641,115.460526 
	C971.906677,114.089394 972.329163,112.603180 973.132629,111.363960 
	C993.309692,80.245270 1050.175293,79.829071 1070.833740,119.938583 
	C1081.732788,141.099594 1083.720581,163.754242 1082.368530,186.965134 
	C1081.288452,205.506622 1076.638184,222.874680 1066.368530,238.751556 
	C1044.205566,273.015198 993.499207,269.545441 973.855408,245.424744 
	C972.781067,244.105545 971.403992,243.032883 970.031128,241.714127 
	C970.031128,273.022888 970.031128,303.672180 970.031128,334.663361 
	C955.821350,334.663361 940.765320,334.663361 925.083191,334.663361 
	C925.083191,267.076935 925.083191,199.501846 925.085449,131.003387 
	C925.179932,117.432869 925.272156,104.785728 925.364380,92.138580 
M1033.859375,198.120285 
	C1034.065674,196.805130 1034.304810,195.494171 1034.473267,194.174194 
	C1036.619873,177.341064 1036.938599,160.584763 1031.012329,144.364792 
	C1026.253906,131.340988 1016.928040,125.453682 1002.815125,125.913528 
	C987.893494,126.399719 978.456787,132.738785 974.719055,146.056976 
	C969.154175,165.885483 969.469299,185.960999 975.093384,205.692596 
	C979.103271,219.760818 988.593750,226.214584 1003.252075,226.504654 
	C1017.502991,226.786636 1025.950928,220.947144 1031.212769,207.040100 
	C1032.208374,204.408432 1032.854736,201.644577 1033.859375,198.120285 
z"/>
<path fill="#214689" opacity="1.000000" stroke="none" 
	d="
M1275.719116,244.722717 
	C1260.527222,256.660248 1243.287842,262.031738 1224.633545,263.335999 
	C1203.107788,264.841034 1181.938477,263.407623 1162.382446,253.217407 
	C1140.100586,241.606888 1127.738403,222.721710 1124.082153,198.132172 
	C1123.035278,191.090637 1122.911011,183.866394 1122.894165,176.724670 
	C1122.791748,133.243958 1122.842529,89.762886 1122.842163,46.281937 
	C1122.842163,44.464470 1122.842163,42.646999 1122.842163,40.496323 
	C1138.358887,40.496323 1153.570190,40.496323 1169.280396,40.496323 
	C1169.280396,42.660263 1169.280396,44.618755 1169.280396,46.577248 
	C1169.280518,88.392265 1169.201294,130.207565 1169.356934,172.022003 
	C1169.383423,179.151382 1169.921997,186.358398 1171.080933,193.388260 
	C1173.921631,210.619247 1182.903931,220.125671 1200.170776,223.013458 
	C1208.420776,224.393219 1217.220215,224.754196 1225.454224,223.499329 
	C1243.791138,220.704727 1253.492432,209.371796 1255.917236,189.788757 
	C1256.590820,184.350143 1256.943359,178.836731 1256.954102,173.356674 
	C1257.037354,131.042114 1257.000244,88.727295 1257.000244,46.412560 
	C1257.000244,44.585464 1257.000244,42.758369 1257.000244,40.546852 
	C1272.419556,40.546852 1287.651123,40.546852 1303.715698,40.546852 
	C1303.715698,42.141068 1303.715820,43.887852 1303.715820,45.634636 
	C1303.715210,90.614830 1303.647461,135.595184 1303.745117,180.575165 
	C1303.787109,199.909576 1300.065674,218.008606 1287.259766,233.212433 
	C1283.848511,237.262512 1279.766602,240.747818 1275.719116,244.722717 
z"/>
<path fill="#21468A" opacity="1.000000" stroke="none" 
	d="
M686.902466,261.592041 
	C672.353943,264.275635 657.841309,264.888062 643.285645,261.433441 
	C616.030701,254.964691 597.962036,238.010147 589.069580,211.980164 
	C580.581238,187.132797 581.117493,161.725235 590.002930,137.007431 
	C600.035095,109.099434 620.954651,94.212898 649.878540,90.106483 
	C667.281616,87.635712 684.574341,88.205582 700.810364,95.604271 
	C727.854675,107.928223 741.966431,129.923676 745.892273,158.804382 
	C748.132874,175.287399 747.240784,191.720459 742.857971,207.832916 
	C737.923096,225.974945 728.160217,240.787857 711.718506,251.590378 
	C703.107605,255.183441 695.005066,258.387726 686.902466,261.592041 
M685.358765,220.952133 
	C688.833923,215.972351 693.739746,211.455383 695.527283,205.929657 
	C701.989563,185.953629 702.018982,165.579163 695.276001,145.605560 
	C690.755554,132.215164 680.332275,125.944969 664.913086,126.012344 
	C649.519470,126.079597 639.415649,132.490829 634.899109,146.071213 
	C628.690796,164.738342 628.583496,183.859772 633.785889,202.657486 
	C640.097351,225.462204 664.555298,234.114349 685.358765,220.952133 
z"/>
<path fill="#21468A" opacity="1.000000" stroke="none" 
	d="
M507.080475,77.787842 
	C481.253448,70.788879 456.095612,82.985405 446.367310,108.470634 
	C435.847107,136.030457 435.975311,164.313660 445.238068,192.152954 
	C453.485535,216.940781 474.301331,226.375961 499.138336,224.692841 
	C515.721558,223.569061 531.627075,219.604172 547.276428,214.301041 
	C548.039001,214.042633 548.853455,213.937347 550.495483,213.570419 
	C550.495483,218.312500 550.495239,222.717651 550.495483,227.122803 
	C550.495911,234.454544 550.651917,241.792282 550.368591,249.113037 
	C550.310730,250.607056 548.919495,252.881836 547.609619,253.372269 
	C520.532471,263.510345 492.620850,266.681152 464.199280,261.154999 
	C428.631012,254.239243 406.686279,231.882263 397.030365,197.648972 
	C388.557892,167.611404 388.118713,137.209915 396.814209,106.979614 
	C408.459442,66.494537 442.882538,39.405285 485.044617,37.197945 
	C510.734253,35.852993 534.932861,41.442265 558.360596,52.566116 
	C555.310730,61.630688 552.025024,70.264626 548.739319,78.898575 
	C547.156616,82.529823 545.573853,86.161072 543.659546,90.553085 
	C541.683655,89.685509 539.741089,88.832550 537.210266,87.655937 
	C526.774841,84.150803 516.927673,80.969322 507.080475,77.787842 
z"/>
<path fill="#214689" opacity="1.000000" stroke="none" 
	d="
M893.484985,106.023407 
	C893.384949,106.456734 893.284851,106.890068 893.136597,108.092026 
	C892.588074,116.250557 892.087646,123.640457 891.587219,131.030365 
	C890.011719,131.585403 888.342529,132.798065 886.875977,132.589035 
	C877.167603,131.205429 867.539673,131.464325 858.235168,134.483139 
	C841.539062,139.900131 831.239624,153.874176 831.056580,171.783844 
	C830.774170,199.431625 830.939880,227.083984 830.915894,254.734406 
	C830.914307,256.542694 830.915710,258.351013 830.915710,260.497559 
	C815.538696,260.497559 800.497314,260.497559 785.191711,260.497559 
	C785.191711,204.479034 785.191711,148.598099 785.191711,92.439461 
	C796.620605,92.439461 807.881897,92.439461 819.758362,92.439461 
	C821.627930,100.264488 823.486633,108.295464 825.511169,116.284431 
	C825.873962,117.716103 826.921997,118.974144 827.653564,120.312370 
	C828.773743,119.211906 830.151184,118.275963 830.975647,116.986412 
	C844.414246,95.967850 866.867920,85.721466 890.841370,89.883774 
	C892.108948,90.103851 893.197205,91.357246 894.305176,92.986855 
	C893.989258,97.903885 893.737122,101.963646 893.484985,106.023407 
z"/>
<path fill="#24488A" opacity="1.000000" stroke="none" 
	d="
M102.161980,91.206497 
	C127.014671,75.682518 151.561462,60.351624 176.059387,44.943027 
	C178.215073,43.587151 179.743362,43.201553 182.203262,44.748611 
	C226.992813,72.917213 271.868317,100.949135 316.721039,129.017349 
	C317.351929,129.412155 317.925293,129.898926 319.311310,130.923843 
	C225.641891,130.923843 133.002243,130.923843 38.809780,130.923843 
	C60.625061,117.237633 81.234032,104.308212 102.161980,91.206497 
M158.863174,118.114212 
	C160.908386,118.057434 162.953598,118.000656 165.921066,118.125916 
	C187.281296,118.063499 208.641510,118.001083 230.923264,118.122978 
	C245.110962,118.122978 259.298645,118.122978 273.486359,118.122978 
	C273.596191,117.781845 273.706024,117.440704 273.815826,117.099571 
	C256.262726,106.267395 238.709641,95.435211 220.735306,84.100845 
	C207.949615,76.125214 195.200043,68.090164 182.325500,60.260643 
	C180.952438,59.425629 178.368027,58.995464 177.160217,59.725433 
	C166.972427,65.882652 156.974396,72.353828 146.239609,78.928284 
	C125.714485,91.689568 105.189369,104.450851 83.489983,117.942230 
	C105.282692,117.942230 125.640305,117.942230 146.904587,118.124130 
	C150.603836,118.061028 154.303101,117.997925 158.863174,118.114212 
z"/>
<path fill="#23488B" opacity="1.000000" stroke="none" 
	d="
M166.000000,316.094238 
	C215.785309,316.094238 265.070618,316.094238 314.714233,316.094238 
	C314.714233,320.401215 314.714233,324.442688 314.714233,328.755920 
	C224.464737,328.755920 134.241913,328.755920 43.656441,328.755920 
	C43.656441,324.731659 43.656441,320.684479 43.656441,316.094238 
	C84.320221,316.094238 124.910110,316.094238 166.000000,316.094238 
z"/>
<path fill="#24488B" opacity="1.000000" stroke="none" 
	d="
M273.996674,160.873337 
	C278.441498,160.873322 282.389343,160.873322 286.567261,160.873322 
	C286.567261,202.976578 286.567261,244.543732 286.567261,286.444397 
	C278.328247,286.444397 270.088593,286.444397 261.432495,286.444397 
	C261.432495,244.906952 261.432495,203.234497 261.432495,160.873352 
	C265.332458,160.873352 269.416077,160.873352 273.996674,160.873337 
z"/>
<path fill="#24488B" opacity="1.000000" stroke="none" 
	d="
M166.345963,263.999878 
	C166.346039,229.527695 166.346039,195.555511 166.346039,161.228104 
	C174.921127,161.228104 183.152771,161.228104 191.727844,161.228104 
	C191.727844,202.833160 191.727844,244.546616 191.727844,286.520050 
	C183.337265,286.520050 175.094635,286.520050 166.345886,286.520050 
	C166.345886,279.070740 166.345886,271.785309 166.345963,263.999878 
z"/>
<path fill="#24488B" opacity="1.000000" stroke="none" 
	d="
M144.848572,216.000031 
	C144.848557,239.765320 144.848557,263.030609 144.848557,286.535156 
	C136.160217,286.535156 127.917374,286.535156 119.365128,286.535156 
	C119.365128,244.733353 119.365128,203.055878 119.365128,161.125580 
	C127.752205,161.125580 135.997162,161.125580 144.848572,161.125580 
	C144.848572,179.319061 144.848572,197.409546 144.848572,216.000031 
z"/>
<path fill="#214589" opacity="1.000000" stroke="none" 
	d="
M239.298431,268.999084 
	C239.298492,274.986176 239.298492,280.473633 239.298492,286.362061 
	C230.838303,286.362061 222.641556,286.362061 214.135712,286.362061 
	C214.135712,244.767548 214.135712,203.193756 214.135712,161.250458 
	C222.240692,161.250458 230.456726,161.250458 239.298386,161.250458 
	C239.298386,197.004333 239.298386,232.751862 239.298431,268.999084 
z"/>
<path fill="#214589" opacity="1.000000" stroke="none" 
	d="
M91.866211,286.767059 
	C85.078987,286.767029 78.778870,286.767029 72.172340,286.767029 
	C72.172340,244.770782 72.172340,203.189529 72.172340,161.244598 
	C80.301155,161.244598 88.518829,161.244598 97.068695,161.244598 
	C97.068695,202.839905 97.068695,244.413559 97.068695,286.767090 
	C95.506447,286.767090 93.929886,286.767090 91.866211,286.767059 
z"/>
<path fill="#23488B" opacity="1.000000" stroke="none" 
	d="
M152.000000,307.944366 
	C120.900871,307.944366 90.301743,307.944366 59.446724,307.944366 
	C59.446724,303.590881 59.446724,299.667175 59.446724,295.385437 
	C139.124893,295.385437 218.785431,295.385437 298.792786,295.385437 
	C298.792786,299.339874 298.792786,303.379303 298.792786,307.944366 
	C249.979782,307.944366 201.239899,307.944366 152.000000,307.944366 
z"/>
<path fill="#204589" opacity="1.000000" stroke="none" 
	d="
M299.061035,150.901398 
	C297.799500,151.706238 296.589966,152.295441 295.380096,152.296082 
	C217.574677,152.337784 139.769241,152.332153 61.963787,152.322449 
	C61.305813,152.322372 60.647854,152.209686 59.597961,152.113770 
	C59.597961,148.196579 59.597961,144.319427 59.597961,140.054047 
	C139.209839,140.054047 218.886246,140.054047 299.112885,140.054047 
	C299.112885,143.510040 299.112885,146.960571 299.061035,150.901398 
z"/>
<path fill="#FBFBFB" opacity="1.000000" stroke="none" 
	d="
M555.303589,96.197296 
	C565.175598,88.335304 581.338257,90.666199 587.768677,100.583733 
	C594.036072,110.249832 590.774475,123.370125 580.667480,129.149429 
	C567.715576,136.555527 554.884949,130.944916 547.408813,114.812843 
	C545.145996,118.469688 543.344360,122.759361 540.359680,125.938248 
	C532.381042,134.436066 517.222290,133.972992 510.014069,125.479073 
	C502.108124,116.162918 503.451843,101.920845 513.597839,95.149452 
	C521.609680,89.802338 534.057068,89.267761 541.266479,97.682411 
	C543.541809,100.338188 543.285828,101.843117 540.248657,103.411804 
	C536.785034,105.200790 534.005371,106.977249 530.174316,103.122948 
	C527.453308,100.385483 523.202209,101.556374 520.252991,104.351784 
	C516.815063,107.610474 516.378845,113.995773 519.123352,117.583107 
	C522.745667,122.317841 527.692078,122.884705 531.891479,118.601967 
	C527.945068,118.034645 523.996460,117.746460 524.890747,112.130875 
	C525.348267,109.258003 526.212097,107.922493 529.175232,107.977989 
	C534.173157,108.071571 539.183960,108.175270 544.167908,107.893860 
	C545.683105,107.808296 547.540344,106.813950 548.522644,105.636551 
	C550.920288,102.762772 552.897888,99.538551 555.303589,96.197296 
z"/>
<path fill="#FAFAFA" opacity="1.000000" stroke="none" 
	d="
M1105.807129,267.870667 
	C1116.923096,265.929108 1128.018677,272.715576 1130.113892,282.284393 
	C1132.541260,293.370758 1126.635376,304.002960 1116.338013,307.031830 
	C1105.462524,310.230774 1091.581055,305.537842 1088.258911,292.493011 
	C1088.075684,291.773773 1087.653320,291.115417 1086.783447,289.194855 
	C1084.841431,299.017365 1079.915894,304.854126 1071.328125,307.361542 
	C1059.839966,310.715759 1047.963013,303.506134 1045.316406,291.467651 
	C1043.108032,281.422363 1050.337891,269.355865 1062.553711,267.836914 
	C1070.083130,266.900665 1076.222168,268.239441 1081.395142,273.857666 
	C1083.559082,276.207733 1083.328125,277.777649 1080.495117,279.268402 
	C1076.916626,281.151428 1073.994385,282.955963 1070.000977,279.004486 
	C1067.295166,276.327026 1062.985596,277.623230 1060.106812,280.493958 
	C1056.614624,283.976562 1056.197266,289.487579 1058.879028,293.303772 
	C1062.133667,297.935120 1066.979126,298.721771 1072.114014,294.939667 
	C1070.748169,294.544983 1069.801025,294.067383 1068.836426,294.029053 
	C1065.256226,293.886810 1065.032227,291.355103 1065.036377,288.766479 
	C1065.040894,285.991364 1065.865112,283.893005 1069.316772,283.974823 
	C1074.144897,284.089294 1078.981445,283.888336 1083.807251,284.044128 
	C1086.483521,284.130524 1087.925903,283.315369 1089.052856,280.673889 
	C1092.102539,273.525391 1097.226685,268.686279 1105.807129,267.870667 
M1110.974609,296.863037 
	C1112.131836,296.241547 1113.445679,295.801727 1114.417358,294.964752 
	C1117.450195,292.352264 1118.074341,285.870148 1115.748535,282.592377 
	C1113.432251,279.328003 1107.495483,278.060883 1104.232910,280.577362 
	C1100.833252,283.199646 1099.674316,286.911469 1101.025391,291.135498 
	C1102.447998,295.583923 1105.763794,297.178284 1110.974609,296.863037 
z"/>
<path fill="#FAFAFA" opacity="1.000000" stroke="none" 
	d="
M725.985962,292.186371 
	C723.011536,306.228516 706.145020,312.870178 693.242859,304.128326 
	C687.164490,300.009949 683.557251,290.610809 685.330566,283.484894 
	C687.431152,275.043854 694.118103,269.229858 702.129089,267.907928 
	C709.539734,266.685089 715.810120,267.954834 721.115417,273.543182 
	C723.768921,276.338287 723.243591,278.002625 719.978516,279.540039 
	C716.690796,281.088165 713.998779,283.113312 710.334717,279.239685 
	C707.591614,276.339722 703.400024,277.527222 700.399658,280.212677 
	C696.554565,283.654144 696.037964,289.348541 698.938354,293.380829 
	C702.266785,298.008423 707.188416,298.741577 712.235535,294.741089 
	C710.547302,294.414032 708.956970,294.583374 708.323486,293.884857 
	C706.958252,292.379486 705.178650,290.378479 705.271851,288.673370 
	C705.360291,287.056030 707.487549,284.386841 708.950806,284.220001 
	C713.886292,283.657196 718.929382,283.880920 723.923218,284.047577 
	C726.664612,284.139099 728.059265,283.204346 729.063965,280.547668 
	C732.104919,272.506531 742.125427,266.228516 749.887695,267.153107 
	C762.358276,268.638489 770.140076,275.195801 770.865845,285.980011 
	C771.817200,300.115692 758.868408,310.988037 743.744019,307.330963 
	C736.104431,305.483704 730.739868,300.940857 728.509521,293.105072 
	C727.898560,290.958557 727.726562,291.007507 725.985962,292.186371 
M744.894592,280.156189 
	C740.004089,284.305237 738.990723,289.922241 742.415527,293.896881 
	C745.338928,297.289429 750.057678,298.031403 753.587830,295.653473 
	C757.028625,293.335724 758.268250,287.679077 756.240356,283.549347 
	C754.520020,280.046173 750.250183,278.601837 744.894592,280.156189 
z"/>
<path fill="#FAFAFA" opacity="1.000000" stroke="none" 
	d="
M549.101440,78.949921 
	C552.025024,70.264626 555.310730,61.630688 558.711792,52.677521 
	C561.057739,51.012093 563.130432,49.041729 565.546936,48.430611 
	C574.709961,46.113323 585.213684,51.527237 589.062256,60.132469 
	C593.020752,68.983627 590.302734,79.218094 582.460632,84.990570 
	C574.784485,90.640915 561.285950,89.632065 554.440491,82.984871 
	C552.922974,81.511337 551.129883,80.321655 549.101440,78.949921 
M571.538818,77.205795 
	C576.126709,75.726082 577.330505,72.332954 577.030518,67.894577 
	C576.779114,64.173080 575.111572,60.962143 571.584106,60.597076 
	C568.701294,60.298725 564.992371,61.295795 562.749023,63.091728 
	C559.485229,65.704651 559.876953,69.769592 561.754883,73.455170 
	C563.685181,77.243546 566.891968,78.220413 571.538818,77.205795 
z"/>
<path fill="#F8F9FA" opacity="1.000000" stroke="none" 
	d="
M891.923218,131.011810 
	C892.087646,123.640457 892.588074,116.250557 893.196716,108.423820 
	C895.450989,107.991524 897.604614,107.881744 899.741516,108.023827 
	C904.546936,108.343361 908.010132,107.987854 910.314575,102.168152 
	C912.527222,96.580086 917.981934,92.879967 924.961304,92.104858 
	C925.272156,104.785728 925.179932,117.432869 924.999634,130.541779 
	C914.541504,130.319489 910.138672,123.098122 907.017761,114.168579 
	C904.797607,122.520943 900.502014,128.519867 891.923218,131.011810 
z"/>
<path fill="#F8F9FA" opacity="1.000000" stroke="none" 
	d="
M686.962524,262.014038 
	C695.005066,258.387726 703.107605,255.183441 711.553711,251.883667 
	C714.584412,252.192856 717.270691,252.909195 719.959290,252.918335 
	C722.909790,252.928375 724.347168,253.785446 724.024536,256.911285 
	C723.871704,258.392242 723.920837,259.906708 724.014160,261.397491 
	C724.167297,263.842651 723.347168,265.056244 720.646667,265.030212 
	C710.669861,264.934052 700.689758,265.079926 690.716187,264.877167 
	C689.468872,264.851807 688.252991,263.287354 686.962524,262.014038 
z"/>
<path fill="#F8F9FA" opacity="1.000000" stroke="none" 
	d="
M507.057251,78.255829 
	C516.927673,80.969322 526.774841,84.150803 536.831848,87.609131 
	C534.342285,88.257118 531.650513,88.859459 528.941772,88.949753 
	C523.798889,89.121170 518.626221,88.717590 513.503296,89.080254 
	C508.581726,89.428665 506.225006,87.889038 506.974640,82.705688 
	C507.163086,81.402794 507.023102,80.052391 507.057251,78.255829 
z"/>
<path fill="#F8F9FA" opacity="1.000000" stroke="none" 
	d="
M893.831421,106.009354 
	C893.737122,101.963646 893.989258,97.903885 894.388550,93.411606 
	C897.312378,95.424599 900.089050,97.870125 902.865784,100.315651 
	C899.969849,102.208870 897.073853,104.102081 893.831421,106.009354 
z"/>
<path fill="#FDFEFE" opacity="1.000000" stroke="none" 
	d="
M1033.760864,198.531006 
	C1032.854736,201.644577 1032.208374,204.408432 1031.212769,207.040100 
	C1025.950928,220.947144 1017.502991,226.786636 1003.252075,226.504654 
	C988.593750,226.214584 979.103271,219.760818 975.093384,205.692596 
	C969.469299,185.960999 969.154175,165.885483 974.719055,146.056976 
	C978.456787,132.738785 987.893494,126.399719 1002.815125,125.913528 
	C1016.928040,125.453682 1026.253906,131.340988 1031.012329,144.364792 
	C1036.938599,160.584763 1036.619873,177.341064 1034.473267,194.174194 
	C1034.304810,195.494171 1034.065674,196.805130 1033.760864,198.531006 
z"/>
<path fill="#FEFEFE" opacity="1.000000" stroke="none" 
	d="
M685.060425,221.163422 
	C664.555298,234.114349 640.097351,225.462204 633.785889,202.657486 
	C628.583496,183.859772 628.690796,164.738342 634.899109,146.071213 
	C639.415649,132.490829 649.519470,126.079597 664.913086,126.012344 
	C680.332275,125.944969 690.755554,132.215164 695.276001,145.605560 
	C702.018982,165.579163 701.989563,185.953629 695.527283,205.929657 
	C693.739746,211.455383 688.833923,215.972351 685.060425,221.163422 
z"/>
<path fill="#FEFEFE" opacity="1.000000" stroke="none" 
	d="
M145.997925,117.942230 
	C125.640305,117.942230 105.282692,117.942230 83.489983,117.942230 
	C105.189369,104.450851 125.714485,91.689568 146.602814,79.298279 
	C146.977600,80.661819 147.119705,81.674278 146.978928,82.645752 
	C146.245483,87.707397 148.399475,89.564140 153.409348,89.065262 
	C156.852814,88.722374 160.358429,89.003365 163.945221,89.355881 
	C164.191147,90.426750 164.328094,91.147224 164.037415,91.902283 
	C149.845230,93.649681 143.550995,102.943626 145.997925,117.942230 
z"/>
<path fill="#FBFBFB" opacity="1.000000" stroke="none" 
	d="
M230.001740,117.938660 
	C208.641510,118.001083 187.281296,118.063499 165.460480,117.594330 
	C165.000122,116.233566 164.991440,115.404274 165.001999,114.575226 
	C165.080017,108.451736 165.501617,108.017570 171.456345,108.002075 
	C175.602219,107.991287 179.753311,107.873741 183.892151,108.044449 
	C186.596283,108.155983 187.944733,107.211700 189.057129,104.618057 
	C194.177216,92.680275 205.571793,89.070107 216.921570,92.611549 
	C227.971878,96.059540 233.060669,106.527138 230.001740,117.938660 
z"/>
<path fill="#FDFEFE" opacity="1.000000" stroke="none" 
	d="
M230.462494,118.030823 
	C233.060669,106.527138 227.971878,96.059540 216.921570,92.611549 
	C205.571793,89.070107 194.177216,92.680275 189.057129,104.618057 
	C187.944733,107.211700 186.596283,108.155983 183.892151,108.044449 
	C179.753311,107.873741 175.602219,107.991287 171.456345,108.002075 
	C165.501617,108.017570 165.080017,108.451736 165.001999,114.575226 
	C164.991440,115.404274 165.000122,116.233566 164.999359,117.503311 
	C162.953598,118.000656 160.908386,118.057434 158.422272,117.617836 
	C156.470108,112.133598 156.150558,107.402298 160.802719,103.703880 
	C165.081787,100.302071 168.901978,102.280243 173.031174,104.272003 
	C174.147217,104.810333 176.316238,103.165695 178.427429,102.466057 
	C189.210236,101.504410 193.938370,96.322617 195.143860,85.000481 
	C198.526535,85.981987 201.464813,87.123955 204.496658,87.900627 
	C210.530243,89.446281 216.174728,88.587265 221.156540,84.603035 
	C238.709641,95.435211 256.262726,106.267395 273.815826,117.099571 
	C273.706024,117.440704 273.596191,117.781845 273.486359,118.122978 
	C259.298645,118.122978 245.110962,118.122978 230.462494,118.030823 
z"/>
<path fill="#F8F9FA" opacity="1.000000" stroke="none" 
	d="
M220.945923,84.351944 
	C216.174728,88.587265 210.530243,89.446281 204.496658,87.900627 
	C201.464813,87.123955 198.526535,85.981987 194.946503,84.712128 
	C192.134293,76.353401 187.079666,72.021065 179.697678,71.863022 
	C170.254807,71.660858 164.334991,78.058792 163.836258,89.005493 
	C160.358429,89.003365 156.852814,88.722374 153.409348,89.065262 
	C148.399475,89.564140 146.245483,87.707397 146.978928,82.645752 
	C147.119705,81.674278 146.977600,80.661819 146.942657,79.199448 
	C156.974396,72.353828 166.972427,65.882652 177.160217,59.725433 
	C178.368027,58.995464 180.952438,59.425629 182.325500,60.260643 
	C195.200043,68.090164 207.949615,76.125214 220.945923,84.351944 
z"/>
<path fill="#F8F9FA" opacity="1.000000" stroke="none" 
	d="
M178.001938,102.523048 
	C176.316238,103.165695 174.147217,104.810333 173.031174,104.272003 
	C168.901978,102.280243 165.081787,100.302071 160.802719,103.703880 
	C156.150558,107.402298 156.470108,112.133598 157.991852,117.528137 
	C154.303101,117.997925 150.603836,118.061028 146.451263,118.033180 
	C143.550995,102.943626 149.845230,93.649681 164.230652,92.164413 
	C167.206879,98.401535 171.819077,101.481674 178.001938,102.523048 
z"/>
<path fill="#FEFEFE" opacity="1.000000" stroke="none" 
	d="
M1110.582520,296.915588 
	C1105.763794,297.178284 1102.447998,295.583923 1101.025391,291.135498 
	C1099.674316,286.911469 1100.833252,283.199646 1104.232910,280.577362 
	C1107.495483,278.060883 1113.432251,279.328003 1115.748535,282.592377 
	C1118.074341,285.870148 1117.450195,292.352264 1114.417358,294.964752 
	C1113.445679,295.801727 1112.131836,296.241547 1110.582520,296.915588 
z"/>
<path fill="#FEFEFE" opacity="1.000000" stroke="none" 
	d="
M745.269592,280.060730 
	C750.250183,278.601837 754.520020,280.046173 756.240356,283.549347 
	C758.268250,287.679077 757.028625,293.335724 753.587830,295.653473 
	C750.057678,298.031403 745.338928,297.289429 742.415527,293.896881 
	C738.990723,289.922241 740.004089,284.305237 745.269592,280.060730 
z"/>
<path fill="#FEFEFE" opacity="1.000000" stroke="none" 
	d="
M571.187866,77.378525 
	C566.891968,78.220413 563.685181,77.243546 561.754883,73.455170 
	C559.876953,69.769592 559.485229,65.704651 562.749023,63.091728 
	C564.992371,61.295795 568.701294,60.298725 571.584106,60.597076 
	C575.111572,60.962143 576.779114,64.173080 577.030518,67.894577 
	C577.330505,72.332954 576.126709,75.726082 571.187866,77.378525 
z"/>
<path fill="#234789" opacity="1.000000" stroke="none" 
	d="
M178.427429,102.466057 
	C171.819077,101.481674 167.206879,98.401535 164.658279,92.129829 
	C164.328094,91.147224 164.191147,90.426750 163.945221,89.355881 
	C164.334991,78.058792 170.254807,71.660858 179.697678,71.863022 
	C187.079666,72.021065 192.134293,76.353401 194.544403,84.707397 
	C193.938370,96.322617 189.210236,101.504410 178.427429,102.466057 
z"/>
</svg>